<?xml version="1.0" standalone="no"?>
<!DOCTYPE svg PUBLIC "-//W3C//DTD SVG 20010904//EN"
 "http://www.w3.org/TR/2001/REC-SVG-20010904/DTD/svg10.dtd">
<svg version="1.0" xmlns="http://www.w3.org/2000/svg"
 width="512.000000pt" height="512.000000pt" viewBox="0 0 512.000000 512.000000"
 preserveAspectRatio="xMidYMid meet">
<metadata>
Created by potrace 1.14, written by Peter Selinger 2001-2017
</metadata>
<g transform="translate(0.000000,512.000000) scale(0.100000,-0.100000)"
fill="#000000" stroke="none">
<path d="M2390 4463 c-227 -31 -445 -86 -561 -142 -24 -12 -46 -21 -49 -21
-14 0 -218 -115 -290 -163 -104 -70 -272 -214 -339 -290 -42 -49 -56 -66 -96
-117 -182 -236 -319 -539 -370 -820 -49 -269 -42 -530 21 -825 4 -16 7 -38 8
-47 0 -9 4 -14 8 -12 4 3 8 -3 8 -13 0 -58 121 -332 207 -472 150 -241 380
-471 621 -621 155 -95 376 -191 519 -224 34 -7 65 -16 70 -19 4 -3 33 -8 63
-12 30 -4 57 -8 60 -10 14 -8 180 -19 300 -19 139 -1 235 6 330 24 30 6 69 13
85 16 17 3 50 11 75 19 25 7 57 16 72 19 15 3 40 11 55 18 15 6 33 12 38 14 6
1 24 8 40 15 17 7 32 13 35 14 3 0 27 11 54 23 27 12 52 22 56 22 5 0 10 3 12
8 2 4 31 20 66 36 34 16 62 33 62 38 0 4 5 8 10 8 9 0 73 38 105 63 154 117
319 270 385 356 14 18 30 38 36 45 24 26 123 174 140 209 10 20 21 37 26 37 4
0 8 4 8 10 0 5 17 44 38 87 58 120 127 320 148 428 2 11 8 43 14 70 16 82 23
171 24 325 2 246 -31 441 -109 659 -15 39 -23 77 -19 84 4 6 4 9 -1 5 -4 -5
-36 50 -71 121 -34 70 -69 134 -77 142 -8 8 -21 28 -30 45 -30 57 -162 220
-257 315 -103 103 -215 192 -339 269 -76 47 -232 130 -245 130 -3 0 -25 9 -49
19 -48 22 -190 70 -227 77 -14 3 -41 9 -60 14 -42 11 -80 18 -140 26 -25 3
-61 9 -80 13 -35 8 -341 10 -390 4z"/>
</g>
</svg>
